<?xml version="1.0" encoding="utf-8" standalone="no"?>
<!DOCTYPE svg PUBLIC "-//W3C//DTD SVG 1.1//EN"
  "http://www.w3.org/Graphics/SVG/1.1/DTD/svg11.dtd">
<!-- Created with matplotlib (https://matplotlib.org/) -->
<svg height="536.95128pt" version="1.1" viewBox="0 0 786.7769 536.95128" width="786.7769pt" xmlns="http://www.w3.org/2000/svg" xmlns:xlink="http://www.w3.org/1999/xlink">
 <metadata>
  <rdf:RDF xmlns:cc="http://creativecommons.org/ns#" xmlns:dc="http://purl.org/dc/elements/1.1/" xmlns:rdf="http://www.w3.org/1999/02/22-rdf-syntax-ns#">
   <cc:Work>
    <dc:type rdf:resource="http://purl.org/dc/dcmitype/StillImage"/>
    <dc:date>2021-08-09T09:27:28.091390</dc:date>
    <dc:format>image/svg+xml</dc:format>
    <dc:creator>
     <cc:Agent>
      <dc:title>Matplotlib v3.3.4, https://matplotlib.org/</dc:title>
     </cc:Agent>
    </dc:creator>
   </cc:Work>
  </rdf:RDF>
 </metadata>
 <defs>
  <style type="text/css">*{stroke-linecap:butt;stroke-linejoin:round;}</style>
 </defs>
 <g id="figure_1">
  <g id="patch_1">
   <path d="M 0 536.95128 
L 786.7769 536.95128 
L 786.7769 0 
L 0 0 
z
" style="fill:none;"/>
  </g>
  <g id="axes_1">
   <g id="patch_2">
    <path d="M 154.1423 452.93068 
L 749.3423 452.93068 
L 749.3423 18.05068 
L 154.1423 18.05068 
z
" style="fill:#ffffff;"/>
   </g>
   <g id="matplotlib.axis_1">
    <g id="xtick_1">
     <g id="line2d_1">
      <defs>
       <path d="M 0 0 
L 0 8 
" id="mfafb8104f2" style="stroke:#000000;stroke-width:8;"/>
      </defs>
      <g>
       <use style="stroke:#000000;stroke-width:8;" x="154.1423" xlink:href="#mfafb8104f2" y="452.93068"/>
      </g>
     </g>
     <g id="text_1">
      <!-- 0 -->
      <g transform="translate(144.0641 488.50253)scale(0.3168 -0.3168)">
       <defs>
        <path d="M 31.78125 66.40625 
Q 24.171875 66.40625 20.328125 58.90625 
Q 16.5 51.421875 16.5 36.375 
Q 16.5 21.390625 20.328125 13.890625 
Q 24.171875 6.390625 31.78125 6.390625 
Q 39.453125 6.390625 43.28125 13.890625 
Q 47.125 21.390625 47.125 36.375 
Q 47.125 51.421875 43.28125 58.90625 
Q 39.453125 66.40625 31.78125 66.40625 
z
M 31.78125 74.21875 
Q 44.046875 74.21875 50.515625 64.515625 
Q 56.984375 54.828125 56.984375 36.375 
Q 56.984375 17.96875 50.515625 8.265625 
Q 44.046875 -1.421875 31.78125 -1.421875 
Q 19.53125 -1.421875 13.0625 8.265625 
Q 6.59375 17.96875 6.59375 36.375 
Q 6.59375 54.828125 13.0625 64.515625 
Q 19.53125 74.21875 31.78125 74.21875 
z
" id="DejaVuSans-48"/>
       </defs>
       <use xlink:href="#DejaVuSans-48"/>
      </g>
     </g>
    </g>
    <g id="xtick_2">
     <g id="line2d_2">
      <g>
       <use style="stroke:#000000;stroke-width:8;" x="273.1823" xlink:href="#mfafb8104f2" y="452.93068"/>
      </g>
     </g>
     <g id="text_2">
      <!-- 100 -->
      <g transform="translate(242.9477 488.50253)scale(0.3168 -0.3168)">
       <defs>
        <path d="M 12.40625 8.296875 
L 28.515625 8.296875 
L 28.515625 63.921875 
L 10.984375 60.40625 
L 10.984375 69.390625 
L 28.421875 72.90625 
L 38.28125 72.90625 
L 38.28125 8.296875 
L 54.390625 8.296875 
L 54.390625 0 
L 12.40625 0 
z
" id="DejaVuSans-49"/>
       </defs>
       <use xlink:href="#DejaVuSans-49"/>
       <use x="63.623047" xlink:href="#DejaVuSans-48"/>
       <use x="127.246094" xlink:href="#DejaVuSans-48"/>
      </g>
     </g>
    </g>
    <g id="xtick_3">
     <g id="line2d_3">
      <g>
       <use style="stroke:#000000;stroke-width:8;" x="392.2223" xlink:href="#mfafb8104f2" y="452.93068"/>
      </g>
     </g>
     <g id="text_3">
      <!-- 200 -->
      <g transform="translate(361.9877 488.50253)scale(0.3168 -0.3168)">
       <defs>
        <path d="M 19.1875 8.296875 
L 53.609375 8.296875 
L 53.609375 0 
L 7.328125 0 
L 7.328125 8.296875 
Q 12.9375 14.109375 22.625 23.890625 
Q 32.328125 33.6875 34.8125 36.53125 
Q 39.546875 41.84375 41.421875 45.53125 
Q 43.3125 49.21875 43.3125 52.78125 
Q 43.3125 58.59375 39.234375 62.25 
Q 35.15625 65.921875 28.609375 65.921875 
Q 23.96875 65.921875 18.8125 64.3125 
Q 13.671875 62.703125 7.8125 59.421875 
L 7.8125 69.390625 
Q 13.765625 71.78125 18.9375 73 
Q 24.125 74.21875 28.421875 74.21875 
Q 39.75 74.21875 46.484375 68.546875 
Q 53.21875 62.890625 53.21875 53.421875 
Q 53.21875 48.921875 51.53125 44.890625 
Q 49.859375 40.875 45.40625 35.40625 
Q 44.1875 33.984375 37.640625 27.21875 
Q 31.109375 20.453125 19.1875 8.296875 
z
" id="DejaVuSans-50"/>
       </defs>
       <use xlink:href="#DejaVuSans-50"/>
       <use x="63.623047" xlink:href="#DejaVuSans-48"/>
       <use x="127.246094" xlink:href="#DejaVuSans-48"/>
      </g>
     </g>
    </g>
    <g id="xtick_4">
     <g id="line2d_4">
      <g>
       <use style="stroke:#000000;stroke-width:8;" x="511.2623" xlink:href="#mfafb8104f2" y="452.93068"/>
      </g>
     </g>
     <g id="text_4">
      <!-- 300 -->
      <g transform="translate(481.0277 488.50253)scale(0.3168 -0.3168)">
       <defs>
        <path d="M 40.578125 39.3125 
Q 47.65625 37.796875 51.625 33 
Q 55.609375 28.21875 55.609375 21.1875 
Q 55.609375 10.40625 48.1875 4.484375 
Q 40.765625 -1.421875 27.09375 -1.421875 
Q 22.515625 -1.421875 17.65625 -0.515625 
Q 12.796875 0.390625 7.625 2.203125 
L 7.625 11.71875 
Q 11.71875 9.328125 16.59375 8.109375 
Q 21.484375 6.890625 26.8125 6.890625 
Q 36.078125 6.890625 40.9375 10.546875 
Q 45.796875 14.203125 45.796875 21.1875 
Q 45.796875 27.640625 41.28125 31.265625 
Q 36.765625 34.90625 28.71875 34.90625 
L 20.21875 34.90625 
L 20.21875 43.015625 
L 29.109375 43.015625 
Q 36.375 43.015625 40.234375 45.921875 
Q 44.09375 48.828125 44.09375 54.296875 
Q 44.09375 59.90625 40.109375 62.90625 
Q 36.140625 65.921875 28.71875 65.921875 
Q 24.65625 65.921875 20.015625 65.03125 
Q 15.375 64.15625 9.8125 62.3125 
L 9.8125 71.09375 
Q 15.4375 72.65625 20.34375 73.4375 
Q 25.25 74.21875 29.59375 74.21875 
Q 40.828125 74.21875 47.359375 69.109375 
Q 53.90625 64.015625 53.90625 55.328125 
Q 53.90625 49.265625 50.4375 45.09375 
Q 46.96875 40.921875 40.578125 39.3125 
z
" id="DejaVuSans-51"/>
       </defs>
       <use xlink:href="#DejaVuSans-51"/>
       <use x="63.623047" xlink:href="#DejaVuSans-48"/>
       <use x="127.246094" xlink:href="#DejaVuSans-48"/>
      </g>
     </g>
    </g>
    <g id="xtick_5">
     <g id="line2d_5">
      <g>
       <use style="stroke:#000000;stroke-width:8;" x="630.3023" xlink:href="#mfafb8104f2" y="452.93068"/>
      </g>
     </g>
     <g id="text_5">
      <!-- 400 -->
      <g transform="translate(600.0677 488.50253)scale(0.3168 -0.3168)">
       <defs>
        <path d="M 37.796875 64.3125 
L 12.890625 25.390625 
L 37.796875 25.390625 
z
M 35.203125 72.90625 
L 47.609375 72.90625 
L 47.609375 25.390625 
L 58.015625 25.390625 
L 58.015625 17.1875 
L 47.609375 17.1875 
L 47.609375 0 
L 37.796875 0 
L 37.796875 17.1875 
L 4.890625 17.1875 
L 4.890625 26.703125 
z
" id="DejaVuSans-52"/>
       </defs>
       <use xlink:href="#DejaVuSans-52"/>
       <use x="63.623047" xlink:href="#DejaVuSans-48"/>
       <use x="127.246094" xlink:href="#DejaVuSans-48"/>
      </g>
     </g>
    </g>
    <g id="xtick_6">
     <g id="line2d_6">
      <g>
       <use style="stroke:#000000;stroke-width:8;" x="749.3423" xlink:href="#mfafb8104f2" y="452.93068"/>
      </g>
     </g>
     <g id="text_6">
      <!-- 500 -->
      <g transform="translate(719.1077 488.50253)scale(0.3168 -0.3168)">
       <defs>
        <path d="M 10.796875 72.90625 
L 49.515625 72.90625 
L 49.515625 64.59375 
L 19.828125 64.59375 
L 19.828125 46.734375 
Q 21.96875 47.46875 24.109375 47.828125 
Q 26.265625 48.1875 28.421875 48.1875 
Q 40.625 48.1875 47.75 41.5 
Q 54.890625 34.8125 54.890625 23.390625 
Q 54.890625 11.625 47.5625 5.09375 
Q 40.234375 -1.421875 26.90625 -1.421875 
Q 22.3125 -1.421875 17.546875 -0.640625 
Q 12.796875 0.140625 7.71875 1.703125 
L 7.71875 11.625 
Q 12.109375 9.234375 16.796875 8.0625 
Q 21.484375 6.890625 26.703125 6.890625 
Q 35.15625 6.890625 40.078125 11.328125 
Q 45.015625 15.765625 45.015625 23.390625 
Q 45.015625 31 40.078125 35.4375 
Q 35.15625 39.890625 26.703125 39.890625 
Q 22.75 39.890625 18.8125 39.015625 
Q 14.890625 38.140625 10.796875 36.28125 
z
" id="DejaVuSans-53"/>
       </defs>
       <use xlink:href="#DejaVuSans-53"/>
       <use x="63.623047" xlink:href="#DejaVuSans-48"/>
       <use x="127.246094" xlink:href="#DejaVuSans-48"/>
      </g>
     </g>
    </g>
    <g id="text_7">
     <!-- Time (s) -->
     <g transform="translate(387.340325 523.16283)scale(0.3168 -0.3168)">
      <defs>
       <path d="M -0.296875 72.90625 
L 61.375 72.90625 
L 61.375 64.59375 
L 35.5 64.59375 
L 35.5 0 
L 25.59375 0 
L 25.59375 64.59375 
L -0.296875 64.59375 
z
" id="DejaVuSans-84"/>
       <path d="M 9.421875 54.6875 
L 18.40625 54.6875 
L 18.40625 0 
L 9.421875 0 
z
M 9.421875 75.984375 
L 18.40625 75.984375 
L 18.40625 64.59375 
L 9.421875 64.59375 
z
" id="DejaVuSans-105"/>
       <path d="M 52 44.1875 
Q 55.375 50.25 60.0625 53.125 
Q 64.75 56 71.09375 56 
Q 79.640625 56 84.28125 50.015625 
Q 88.921875 44.046875 88.921875 33.015625 
L 88.921875 0 
L 79.890625 0 
L 79.890625 32.71875 
Q 79.890625 40.578125 77.09375 44.375 
Q 74.3125 48.1875 68.609375 48.1875 
Q 61.625 48.1875 57.5625 43.546875 
Q 53.515625 38.921875 53.515625 30.90625 
L 53.515625 0 
L 44.484375 0 
L 44.484375 32.71875 
Q 44.484375 40.625 41.703125 44.40625 
Q 38.921875 48.1875 33.109375 48.1875 
Q 26.21875 48.1875 22.15625 43.53125 
Q 18.109375 38.875 18.109375 30.90625 
L 18.109375 0 
L 9.078125 0 
L 9.078125 54.6875 
L 18.109375 54.6875 
L 18.109375 46.1875 
Q 21.1875 51.21875 25.484375 53.609375 
Q 29.78125 56 35.6875 56 
Q 41.65625 56 45.828125 52.96875 
Q 50 49.953125 52 44.1875 
z
" id="DejaVuSans-109"/>
       <path d="M 56.203125 29.59375 
L 56.203125 25.203125 
L 14.890625 25.203125 
Q 15.484375 15.921875 20.484375 11.0625 
Q 25.484375 6.203125 34.421875 6.203125 
Q 39.59375 6.203125 44.453125 7.46875 
Q 49.3125 8.734375 54.109375 11.28125 
L 54.109375 2.78125 
Q 49.265625 0.734375 44.1875 -0.34375 
Q 39.109375 -1.421875 33.890625 -1.421875 
Q 20.796875 -1.421875 13.15625 6.1875 
Q 5.515625 13.8125 5.515625 26.8125 
Q 5.515625 40.234375 12.765625 48.109375 
Q 20.015625 56 32.328125 56 
Q 43.359375 56 49.78125 48.890625 
Q 56.203125 41.796875 56.203125 29.59375 
z
M 47.21875 32.234375 
Q 47.125 39.59375 43.09375 43.984375 
Q 39.0625 48.390625 32.421875 48.390625 
Q 24.90625 48.390625 20.390625 44.140625 
Q 15.875 39.890625 15.1875 32.171875 
z
" id="DejaVuSans-101"/>
       <path id="DejaVuSans-32"/>
       <path d="M 31 75.875 
Q 24.46875 64.65625 21.28125 53.65625 
Q 18.109375 42.671875 18.109375 31.390625 
Q 18.109375 20.125 21.3125 9.0625 
Q 24.515625 -2 31 -13.1875 
L 23.1875 -13.1875 
Q 15.875 -1.703125 12.234375 9.375 
Q 8.59375 20.453125 8.59375 31.390625 
Q 8.59375 42.28125 12.203125 53.3125 
Q 15.828125 64.359375 23.1875 75.875 
z
" id="DejaVuSans-40"/>
       <path d="M 44.28125 53.078125 
L 44.28125 44.578125 
Q 40.484375 46.53125 36.375 47.5 
Q 32.28125 48.484375 27.875 48.484375 
Q 21.1875 48.484375 17.84375 46.4375 
Q 14.5 44.390625 14.5 40.28125 
Q 14.5 37.15625 16.890625 35.375 
Q 19.28125 33.59375 26.515625 31.984375 
L 29.59375 31.296875 
Q 39.15625 29.25 43.1875 25.515625 
Q 47.21875 21.78125 47.21875 15.09375 
Q 47.21875 7.46875 41.1875 3.015625 
Q 35.15625 -1.421875 24.609375 -1.421875 
Q 20.21875 -1.421875 15.453125 -0.5625 
Q 10.6875 0.296875 5.421875 2 
L 5.421875 11.28125 
Q 10.40625 8.6875 15.234375 7.390625 
Q 20.0625 6.109375 24.8125 6.109375 
Q 31.15625 6.109375 34.5625 8.28125 
Q 37.984375 10.453125 37.984375 14.40625 
Q 37.984375 18.0625 35.515625 20.015625 
Q 33.0625 21.96875 24.703125 23.78125 
L 21.578125 24.515625 
Q 13.234375 26.265625 9.515625 29.90625 
Q 5.8125 33.546875 5.8125 39.890625 
Q 5.8125 47.609375 11.28125 51.796875 
Q 16.75 56 26.8125 56 
Q 31.78125 56 36.171875 55.265625 
Q 40.578125 54.546875 44.28125 53.078125 
z
" id="DejaVuSans-115"/>
       <path d="M 8.015625 75.875 
L 15.828125 75.875 
Q 23.140625 64.359375 26.78125 53.3125 
Q 30.421875 42.28125 30.421875 31.390625 
Q 30.421875 20.453125 26.78125 9.375 
Q 23.140625 -1.703125 15.828125 -13.1875 
L 8.015625 -13.1875 
Q 14.5 -2 17.703125 9.0625 
Q 20.90625 20.125 20.90625 31.390625 
Q 20.90625 42.671875 17.703125 53.65625 
Q 14.5 64.65625 8.015625 75.875 
z
" id="DejaVuSans-41"/>
      </defs>
      <use xlink:href="#DejaVuSans-84"/>
      <use x="57.958984" xlink:href="#DejaVuSans-105"/>
      <use x="85.742188" xlink:href="#DejaVuSans-109"/>
      <use x="183.154297" xlink:href="#DejaVuSans-101"/>
      <use x="244.677734" xlink:href="#DejaVuSans-32"/>
      <use x="276.464844" xlink:href="#DejaVuSans-40"/>
      <use x="315.478516" xlink:href="#DejaVuSans-115"/>
      <use x="367.578125" xlink:href="#DejaVuSans-41"/>
     </g>
    </g>
   </g>
   <g id="matplotlib.axis_2">
    <g id="ytick_1">
     <g id="line2d_7">
      <defs>
       <path d="M 0 0 
L -8 0 
" id="m6aee488088" style="stroke:#000000;stroke-width:8;"/>
      </defs>
      <g>
       <use style="stroke:#000000;stroke-width:8;" x="154.1423" xlink:href="#m6aee488088" y="407.33175"/>
      </g>
     </g>
     <g id="text_8">
      <!-- 5000 -->
      <g transform="translate(62.0167 419.367675)scale(0.3168 -0.3168)">
       <use xlink:href="#DejaVuSans-53"/>
       <use x="63.623047" xlink:href="#DejaVuSans-48"/>
       <use x="127.246094" xlink:href="#DejaVuSans-48"/>
       <use x="190.869141" xlink:href="#DejaVuSans-48"/>
      </g>
     </g>
    </g>
    <g id="ytick_2">
     <g id="line2d_8">
      <g>
       <use style="stroke:#000000;stroke-width:8;" x="154.1423" xlink:href="#m6aee488088" y="329.712585"/>
      </g>
     </g>
     <g id="text_9">
      <!-- 10000 -->
      <g transform="translate(41.8603 341.74851)scale(0.3168 -0.3168)">
       <use xlink:href="#DejaVuSans-49"/>
       <use x="63.623047" xlink:href="#DejaVuSans-48"/>
       <use x="127.246094" xlink:href="#DejaVuSans-48"/>
       <use x="190.869141" xlink:href="#DejaVuSans-48"/>
       <use x="254.492188" xlink:href="#DejaVuSans-48"/>
      </g>
     </g>
    </g>
    <g id="ytick_3">
     <g id="line2d_9">
      <g>
       <use style="stroke:#000000;stroke-width:8;" x="154.1423" xlink:href="#m6aee488088" y="252.09342"/>
      </g>
     </g>
     <g id="text_10">
      <!-- 15000 -->
      <g transform="translate(41.8603 264.129345)scale(0.3168 -0.3168)">
       <use xlink:href="#DejaVuSans-49"/>
       <use x="63.623047" xlink:href="#DejaVuSans-53"/>
       <use x="127.246094" xlink:href="#DejaVuSans-48"/>
       <use x="190.869141" xlink:href="#DejaVuSans-48"/>
       <use x="254.492188" xlink:href="#DejaVuSans-48"/>
      </g>
     </g>
    </g>
    <g id="ytick_4">
     <g id="line2d_10">
      <g>
       <use style="stroke:#000000;stroke-width:8;" x="154.1423" xlink:href="#m6aee488088" y="174.474255"/>
      </g>
     </g>
     <g id="text_11">
      <!-- 20000 -->
      <g transform="translate(41.8603 186.51018)scale(0.3168 -0.3168)">
       <use xlink:href="#DejaVuSans-50"/>
       <use x="63.623047" xlink:href="#DejaVuSans-48"/>
       <use x="127.246094" xlink:href="#DejaVuSans-48"/>
       <use x="190.869141" xlink:href="#DejaVuSans-48"/>
       <use x="254.492188" xlink:href="#DejaVuSans-48"/>
      </g>
     </g>
    </g>
    <g id="ytick_5">
     <g id="line2d_11">
      <g>
       <use style="stroke:#000000;stroke-width:8;" x="154.1423" xlink:href="#m6aee488088" y="96.85509"/>
      </g>
     </g>
     <g id="text_12">
      <!-- 25000 -->
      <g transform="translate(41.8603 108.891015)scale(0.3168 -0.3168)">
       <use xlink:href="#DejaVuSans-50"/>
       <use x="63.623047" xlink:href="#DejaVuSans-53"/>
       <use x="127.246094" xlink:href="#DejaVuSans-48"/>
       <use x="190.869141" xlink:href="#DejaVuSans-48"/>
       <use x="254.492188" xlink:href="#DejaVuSans-48"/>
      </g>
     </g>
    </g>
    <g id="ytick_6">
     <g id="line2d_12">
      <g>
       <use style="stroke:#000000;stroke-width:8;" x="154.1423" xlink:href="#m6aee488088" y="19.235925"/>
      </g>
     </g>
     <g id="text_13">
      <!-- 30000 -->
      <g transform="translate(41.8603 31.27185)scale(0.3168 -0.3168)">
       <use xlink:href="#DejaVuSans-51"/>
       <use x="63.623047" xlink:href="#DejaVuSans-48"/>
       <use x="127.246094" xlink:href="#DejaVuSans-48"/>
       <use x="190.869141" xlink:href="#DejaVuSans-48"/>
       <use x="254.492188" xlink:href="#DejaVuSans-48"/>
      </g>
     </g>
    </g>
    <g id="text_14">
     <!-- Counts -->
     <g transform="translate(31.27185 290.78218)rotate(-90)scale(0.3168 -0.3168)">
      <defs>
       <path d="M 64.40625 67.28125 
L 64.40625 56.890625 
Q 59.421875 61.53125 53.78125 63.8125 
Q 48.140625 66.109375 41.796875 66.109375 
Q 29.296875 66.109375 22.65625 58.46875 
Q 16.015625 50.828125 16.015625 36.375 
Q 16.015625 21.96875 22.65625 14.328125 
Q 29.296875 6.6875 41.796875 6.6875 
Q 48.140625 6.6875 53.78125 8.984375 
Q 59.421875 11.28125 64.40625 15.921875 
L 64.40625 5.609375 
Q 59.234375 2.09375 53.4375 0.328125 
Q 47.65625 -1.421875 41.21875 -1.421875 
Q 24.65625 -1.421875 15.125 8.703125 
Q 5.609375 18.84375 5.609375 36.375 
Q 5.609375 53.953125 15.125 64.078125 
Q 24.65625 74.21875 41.21875 74.21875 
Q 47.75 74.21875 53.53125 72.484375 
Q 59.328125 70.75 64.40625 67.28125 
z
" id="DejaVuSans-67"/>
       <path d="M 30.609375 48.390625 
Q 23.390625 48.390625 19.1875 42.75 
Q 14.984375 37.109375 14.984375 27.296875 
Q 14.984375 17.484375 19.15625 11.84375 
Q 23.34375 6.203125 30.609375 6.203125 
Q 37.796875 6.203125 41.984375 11.859375 
Q 46.1875 17.53125 46.1875 27.296875 
Q 46.1875 37.015625 41.984375 42.703125 
Q 37.796875 48.390625 30.609375 48.390625 
z
M 30.609375 56 
Q 42.328125 56 49.015625 48.375 
Q 55.71875 40.765625 55.71875 27.296875 
Q 55.71875 13.875 49.015625 6.21875 
Q 42.328125 -1.421875 30.609375 -1.421875 
Q 18.84375 -1.421875 12.171875 6.21875 
Q 5.515625 13.875 5.515625 27.296875 
Q 5.515625 40.765625 12.171875 48.375 
Q 18.84375 56 30.609375 56 
z
" id="DejaVuSans-111"/>
       <path d="M 8.5 21.578125 
L 8.5 54.6875 
L 17.484375 54.6875 
L 17.484375 21.921875 
Q 17.484375 14.15625 20.5 10.265625 
Q 23.53125 6.390625 29.59375 6.390625 
Q 36.859375 6.390625 41.078125 11.03125 
Q 45.3125 15.671875 45.3125 23.6875 
L 45.3125 54.6875 
L 54.296875 54.6875 
L 54.296875 0 
L 45.3125 0 
L 45.3125 8.40625 
Q 42.046875 3.421875 37.71875 1 
Q 33.40625 -1.421875 27.6875 -1.421875 
Q 18.265625 -1.421875 13.375 4.4375 
Q 8.5 10.296875 8.5 21.578125 
z
M 31.109375 56 
z
" id="DejaVuSans-117"/>
       <path d="M 54.890625 33.015625 
L 54.890625 0 
L 45.90625 0 
L 45.90625 32.71875 
Q 45.90625 40.484375 42.875 44.328125 
Q 39.84375 48.1875 33.796875 48.1875 
Q 26.515625 48.1875 22.3125 43.546875 
Q 18.109375 38.921875 18.109375 30.90625 
L 18.109375 0 
L 9.078125 0 
L 9.078125 54.6875 
L 18.109375 54.6875 
L 18.109375 46.1875 
Q 21.34375 51.125 25.703125 53.5625 
Q 30.078125 56 35.796875 56 
Q 45.21875 56 50.046875 50.171875 
Q 54.890625 44.34375 54.890625 33.015625 
z
" id="DejaVuSans-110"/>
       <path d="M 18.3125 70.21875 
L 18.3125 54.6875 
L 36.8125 54.6875 
L 36.8125 47.703125 
L 18.3125 47.703125 
L 18.3125 18.015625 
Q 18.3125 11.328125 20.140625 9.421875 
Q 21.96875 7.515625 27.59375 7.515625 
L 36.8125 7.515625 
L 36.8125 0 
L 27.59375 0 
Q 17.1875 0 13.234375 3.875 
Q 9.28125 7.765625 9.28125 18.015625 
L 9.28125 47.703125 
L 2.6875 47.703125 
L 2.6875 54.6875 
L 9.28125 54.6875 
L 9.28125 70.21875 
z
" id="DejaVuSans-116"/>
      </defs>
      <use xlink:href="#DejaVuSans-67"/>
      <use x="69.824219" xlink:href="#DejaVuSans-111"/>
      <use x="131.005859" xlink:href="#DejaVuSans-117"/>
      <use x="194.384766" xlink:href="#DejaVuSans-110"/>
      <use x="257.763672" xlink:href="#DejaVuSans-116"/>
      <use x="296.972656" xlink:href="#DejaVuSans-115"/>
     </g>
    </g>
   </g>
   <g id="LineCollection_1">
    <path clip-path="url(#p01644cbe54)" d="M 166.0463 133.398193 
L 166.0463 50.469877 
" style="fill:none;stroke:#000000;stroke-width:1.5;"/>
    <path clip-path="url(#p01644cbe54)" d="M 176.7599 37.817953 
L 176.7599 67.747903 
" style="fill:none;stroke:#000000;stroke-width:1.5;"/>
    <path clip-path="url(#p01644cbe54)" d="M 189.8543 120.559983 
L 189.8543 87.959934 
" style="fill:none;stroke:#000000;stroke-width:1.5;"/>
    <path clip-path="url(#p01644cbe54)" d="M 200.5679 123.012748 
L 200.5679 103.763196 
" style="fill:none;stroke:#000000;stroke-width:1.5;"/>
    <path clip-path="url(#p01644cbe54)" d="M 213.6623 103.747672 
L 213.6623 122.221033 
" style="fill:none;stroke:#000000;stroke-width:1.5;"/>
    <path clip-path="url(#p01644cbe54)" d="M 224.3759 126.862659 
L 224.3759 136.642674 
" style="fill:none;stroke:#000000;stroke-width:1.5;"/>
    <path clip-path="url(#p01644cbe54)" d="M 237.4703 125.3258 
L 237.4703 153.51708 
" style="fill:none;stroke:#000000;stroke-width:1.5;"/>
    <path clip-path="url(#p01644cbe54)" d="M 249.3743 166.246623 
L 249.3743 168.140531 
" style="fill:none;stroke:#000000;stroke-width:1.5;"/>
    <path clip-path="url(#p01644cbe54)" d="M 260.0879 182.251695 
L 260.0879 180.761407 
" style="fill:none;stroke:#000000;stroke-width:1.5;"/>
    <path clip-path="url(#p01644cbe54)" d="M 273.1823 179.938644 
L 273.1823 195.493525 
" style="fill:none;stroke:#000000;stroke-width:1.5;"/>
    <path clip-path="url(#p01644cbe54)" d="M 283.8959 208.890593 
L 283.8959 207.027733 
" style="fill:none;stroke:#000000;stroke-width:1.5;"/>
    <path clip-path="url(#p01644cbe54)" d="M 296.9903 207.726305 
L 296.9903 220.455848 
" style="fill:none;stroke:#000000;stroke-width:1.5;"/>
    <path clip-path="url(#p01644cbe54)" d="M 307.7039 235.979681 
L 307.7039 231.012055 
" style="fill:none;stroke:#000000;stroke-width:1.5;"/>
    <path clip-path="url(#p01644cbe54)" d="M 320.7983 247.684651 
L 320.7983 243.30693 
" style="fill:none;stroke:#000000;stroke-width:1.5;"/>
    <path clip-path="url(#p01644cbe54)" d="M 332.7023 268.284778 
L 332.7023 253.971804 
" style="fill:none;stroke:#000000;stroke-width:1.5;"/>
    <path clip-path="url(#p01644cbe54)" d="M 343.4159 213.221742 
L 343.4159 263.146389 
" style="fill:none;stroke:#000000;stroke-width:1.5;"/>
    <path clip-path="url(#p01644cbe54)" d="M 356.5103 272.584879 
L 356.5103 273.888881 
" style="fill:none;stroke:#000000;stroke-width:1.5;"/>
    <path clip-path="url(#p01644cbe54)" d="M 367.2239 258.008 
L 367.2239 282.287275 
" style="fill:none;stroke:#000000;stroke-width:1.5;"/>
    <path clip-path="url(#p01644cbe54)" d="M 380.3183 249.82694 
L 380.3183 292.113861 
" style="fill:none;stroke:#000000;stroke-width:1.5;"/>
    <path clip-path="url(#p01644cbe54)" d="M 391.0319 306.318168 
L 391.0319 299.798158 
" style="fill:none;stroke:#000000;stroke-width:1.5;"/>
    <path clip-path="url(#p01644cbe54)" d="M 404.1263 302.825306 
L 404.1263 308.75541 
" style="fill:none;stroke:#000000;stroke-width:1.5;"/>
    <path clip-path="url(#p01644cbe54)" d="M 416.0303 303.011592 
L 416.0303 316.517327 
" style="fill:none;stroke:#000000;stroke-width:1.5;"/>
    <path clip-path="url(#p01644cbe54)" d="M 426.7439 315.989516 
L 426.7439 323.223622 
" style="fill:none;stroke:#000000;stroke-width:1.5;"/>
    <path clip-path="url(#p01644cbe54)" d="M 439.8383 324.372386 
L 439.8383 331.047634 
" style="fill:none;stroke:#000000;stroke-width:1.5;"/>
    <path clip-path="url(#p01644cbe54)" d="M 450.5519 344.27394 
L 450.5519 337.195072 
" style="fill:none;stroke:#000000;stroke-width:1.5;"/>
    <path clip-path="url(#p01644cbe54)" d="M 463.6463 338.095454 
L 463.6463 344.336035 
" style="fill:none;stroke:#000000;stroke-width:1.5;"/>
    <path clip-path="url(#p01644cbe54)" d="M 474.3599 350.095377 
L 474.3599 349.940139 
" style="fill:none;stroke:#000000;stroke-width:1.5;"/>
    <path clip-path="url(#p01644cbe54)" d="M 487.4543 364.191018 
L 487.4543 356.491197 
" style="fill:none;stroke:#000000;stroke-width:1.5;"/>
    <path clip-path="url(#p01644cbe54)" d="M 499.3583 351.787475 
L 499.3583 362.126348 
" style="fill:none;stroke:#000000;stroke-width:1.5;"/>
    <path clip-path="url(#p01644cbe54)" d="M 510.0719 362.685206 
L 510.0719 367.031879 
" style="fill:none;stroke:#000000;stroke-width:1.5;"/>
    <path clip-path="url(#p01644cbe54)" d="M 523.1663 352.967286 
L 523.1663 372.74465 
" style="fill:none;stroke:#000000;stroke-width:1.5;"/>
    <path clip-path="url(#p01644cbe54)" d="M 533.8799 390.410772 
L 533.8799 377.215514 
" style="fill:none;stroke:#000000;stroke-width:1.5;"/>
    <path clip-path="url(#p01644cbe54)" d="M 546.9743 376.842942 
L 546.9743 382.431521 
" style="fill:none;stroke:#000000;stroke-width:1.5;"/>
    <path clip-path="url(#p01644cbe54)" d="M 557.6879 385.90886 
L 557.6879 386.498766 
" style="fill:none;stroke:#000000;stroke-width:1.5;"/>
    <path clip-path="url(#p01644cbe54)" d="M 570.7823 398.126117 
L 570.7823 391.29563 
" style="fill:none;stroke:#000000;stroke-width:1.5;"/>
    <path clip-path="url(#p01644cbe54)" d="M 582.6863 397.908783 
L 582.6863 395.42497 
" style="fill:none;stroke:#000000;stroke-width:1.5;"/>
    <path clip-path="url(#p01644cbe54)" d="M 593.3999 406.72632 
L 593.3999 398.995451 
" style="fill:none;stroke:#000000;stroke-width:1.5;"/>
    <path clip-path="url(#p01644cbe54)" d="M 606.4943 392.708299 
L 606.4943 403.140315 
" style="fill:none;stroke:#000000;stroke-width:1.5;"/>
    <path clip-path="url(#p01644cbe54)" d="M 617.2079 404.211459 
L 617.2079 406.384796 
" style="fill:none;stroke:#000000;stroke-width:1.5;"/>
    <path clip-path="url(#p01644cbe54)" d="M 630.3023 407.33175 
L 630.3023 410.188135 
" style="fill:none;stroke:#000000;stroke-width:1.5;"/>
    <path clip-path="url(#p01644cbe54)" d="M 641.0159 417.003097 
L 641.0159 413.184235 
" style="fill:none;stroke:#000000;stroke-width:1.5;"/>
    <path clip-path="url(#p01644cbe54)" d="M 654.1103 412.609853 
L 654.1103 416.646049 
" style="fill:none;stroke:#000000;stroke-width:1.5;"/>
    <path clip-path="url(#p01644cbe54)" d="M 666.0143 425.758539 
L 666.0143 419.673197 
" style="fill:none;stroke:#000000;stroke-width:1.5;"/>
    <path clip-path="url(#p01644cbe54)" d="M 676.7279 416.133763 
L 676.7279 422.250153 
" style="fill:none;stroke:#000000;stroke-width:1.5;"/>
    <path clip-path="url(#p01644cbe54)" d="M 689.8223 430.617499 
L 689.8223 425.308348 
" style="fill:none;stroke:#000000;stroke-width:1.5;"/>
    <path clip-path="url(#p01644cbe54)" d="M 700.5359 418.198433 
L 700.5359 427.667971 
" style="fill:none;stroke:#000000;stroke-width:1.5;"/>
    <path clip-path="url(#p01644cbe54)" d="M 713.6303 433.163408 
L 713.6303 430.462261 
" style="fill:none;stroke:#000000;stroke-width:1.5;"/>
   </g>
   <g id="line2d_13">
    <defs>
     <path d="M 0 5 
C 1.326016 5 2.597899 4.473168 3.535534 3.535534 
C 4.473168 2.597899 5 1.326016 5 0 
C 5 -1.326016 4.473168 -2.597899 3.535534 -3.535534 
C 2.597899 -4.473168 1.326016 -5 0 -5 
C -1.326016 -5 -2.597899 -4.473168 -3.535534 -3.535534 
C -4.473168 -2.597899 -5 -1.326016 -5 0 
C -5 1.326016 -4.473168 2.597899 -3.535534 3.535534 
C -2.597899 4.473168 -1.326016 5 0 5 
z
" id="me93fcf7044" style="stroke:#000000;"/>
    </defs>
    <g clip-path="url(#p01644cbe54)">
     <use style="stroke:#000000;" x="166.0463" xlink:href="#me93fcf7044" y="91.934035"/>
     <use style="stroke:#000000;" x="176.7599" xlink:href="#me93fcf7044" y="52.782928"/>
     <use style="stroke:#000000;" x="189.8543" xlink:href="#me93fcf7044" y="104.259958"/>
     <use style="stroke:#000000;" x="200.5679" xlink:href="#me93fcf7044" y="113.387972"/>
     <use style="stroke:#000000;" x="213.6623" xlink:href="#me93fcf7044" y="112.984352"/>
     <use style="stroke:#000000;" x="224.3759" xlink:href="#me93fcf7044" y="131.752666"/>
     <use style="stroke:#000000;" x="237.4703" xlink:href="#me93fcf7044" y="139.42144"/>
     <use style="stroke:#000000;" x="249.3743" xlink:href="#me93fcf7044" y="167.193577"/>
     <use style="stroke:#000000;" x="260.0879" xlink:href="#me93fcf7044" y="181.506551"/>
     <use style="stroke:#000000;" x="273.1823" xlink:href="#me93fcf7044" y="187.716084"/>
     <use style="stroke:#000000;" x="283.8959" xlink:href="#me93fcf7044" y="207.959163"/>
     <use style="stroke:#000000;" x="296.9903" xlink:href="#me93fcf7044" y="214.091077"/>
     <use style="stroke:#000000;" x="307.7039" xlink:href="#me93fcf7044" y="233.495868"/>
     <use style="stroke:#000000;" x="320.7983" xlink:href="#me93fcf7044" y="245.495791"/>
     <use style="stroke:#000000;" x="332.7023" xlink:href="#me93fcf7044" y="261.128291"/>
     <use style="stroke:#000000;" x="343.4159" xlink:href="#me93fcf7044" y="238.184065"/>
     <use style="stroke:#000000;" x="356.5103" xlink:href="#me93fcf7044" y="273.23688"/>
     <use style="stroke:#000000;" x="367.2239" xlink:href="#me93fcf7044" y="270.147637"/>
     <use style="stroke:#000000;" x="380.3183" xlink:href="#me93fcf7044" y="270.970401"/>
     <use style="stroke:#000000;" x="391.0319" xlink:href="#me93fcf7044" y="303.058163"/>
     <use style="stroke:#000000;" x="404.1263" xlink:href="#me93fcf7044" y="305.790358"/>
     <use style="stroke:#000000;" x="416.0303" xlink:href="#me93fcf7044" y="309.764459"/>
     <use style="stroke:#000000;" x="426.7439" xlink:href="#me93fcf7044" y="319.606569"/>
     <use style="stroke:#000000;" x="439.8383" xlink:href="#me93fcf7044" y="327.71001"/>
     <use style="stroke:#000000;" x="450.5519" xlink:href="#me93fcf7044" y="340.734506"/>
     <use style="stroke:#000000;" x="463.6463" xlink:href="#me93fcf7044" y="341.215745"/>
     <use style="stroke:#000000;" x="474.3599" xlink:href="#me93fcf7044" y="350.017758"/>
     <use style="stroke:#000000;" x="487.4543" xlink:href="#me93fcf7044" y="360.341107"/>
     <use style="stroke:#000000;" x="499.3583" xlink:href="#me93fcf7044" y="356.956912"/>
     <use style="stroke:#000000;" x="510.0719" xlink:href="#me93fcf7044" y="364.858543"/>
     <use style="stroke:#000000;" x="523.1663" xlink:href="#me93fcf7044" y="362.855968"/>
     <use style="stroke:#000000;" x="533.8799" xlink:href="#me93fcf7044" y="383.813143"/>
     <use style="stroke:#000000;" x="546.9743" xlink:href="#me93fcf7044" y="379.637232"/>
     <use style="stroke:#000000;" x="557.6879" xlink:href="#me93fcf7044" y="386.203813"/>
     <use style="stroke:#000000;" x="570.7823" xlink:href="#me93fcf7044" y="394.710873"/>
     <use style="stroke:#000000;" x="582.6863" xlink:href="#me93fcf7044" y="396.666876"/>
     <use style="stroke:#000000;" x="593.3999" xlink:href="#me93fcf7044" y="402.860886"/>
     <use style="stroke:#000000;" x="606.4943" xlink:href="#me93fcf7044" y="397.924307"/>
     <use style="stroke:#000000;" x="617.2079" xlink:href="#me93fcf7044" y="405.298127"/>
     <use style="stroke:#000000;" x="630.3023" xlink:href="#me93fcf7044" y="408.759942"/>
     <use style="stroke:#000000;" x="641.0159" xlink:href="#me93fcf7044" y="415.093666"/>
     <use style="stroke:#000000;" x="654.1103" xlink:href="#me93fcf7044" y="414.627951"/>
     <use style="stroke:#000000;" x="666.0143" xlink:href="#me93fcf7044" y="422.715868"/>
     <use style="stroke:#000000;" x="676.7279" xlink:href="#me93fcf7044" y="419.191958"/>
     <use style="stroke:#000000;" x="689.8223" xlink:href="#me93fcf7044" y="427.962924"/>
     <use style="stroke:#000000;" x="700.5359" xlink:href="#me93fcf7044" y="422.933202"/>
     <use style="stroke:#000000;" x="713.6303" xlink:href="#me93fcf7044" y="431.812834"/>
    </g>
   </g>
   <g id="patch_3">
    <path d="M 154.1423 452.93068 
L 154.1423 18.05068 
" style="fill:none;stroke:#000000;stroke-linecap:square;stroke-linejoin:miter;stroke-width:0.8;"/>
   </g>
   <g id="patch_4">
    <path d="M 749.3423 452.93068 
L 749.3423 18.05068 
" style="fill:none;stroke:#000000;stroke-linecap:square;stroke-linejoin:miter;stroke-width:0.8;"/>
   </g>
   <g id="patch_5">
    <path d="M 154.1423 452.93068 
L 749.3423 452.93068 
" style="fill:none;stroke:#000000;stroke-linecap:square;stroke-linejoin:miter;stroke-width:0.8;"/>
   </g>
   <g id="patch_6">
    <path d="M 154.1423 18.05068 
L 749.3423 18.05068 
" style="fill:none;stroke:#000000;stroke-linecap:square;stroke-linejoin:miter;stroke-width:0.8;"/>
   </g>
  </g>
 </g>
 <defs>
  <clipPath id="p01644cbe54">
   <rect height="434.88" width="595.2" x="154.1423" y="18.05068"/>
  </clipPath>
 </defs>
</svg>
